#!OML:ASF F:\VICON\USERDATA\INSTALL\rory3\rory3.ASF
:FULLY-SPECIFIED
:DEGREES
723
root 4.16858 17.5438 -4.09737 185.584 49.6094 187.61
lowerback 15.7791 2.24888 2.40992
upperback 3.18525 3.76993 1.98199
thorax -5.42502 1.9419 -0.03493
lowerneck -14.4725 -6.08916 -12.4028
upperneck 37.5256 -4.51292 4.76098
head 16.4045 -2.22571 3.68932
rclavicle 9.69075e-015 3.26007e-014
rhumerus -26.4083 30.1278 -89.4863
rradius 71.3746
rwrist 13.0802
rhand -10.998 14.6105
rfingers 7.12502
rthumb 15.0224 -14.8245
lclavicle 9.69075e-015 3.26007e-014
lhumerus -38.999 -29.433 102.361
lradius 65.951
lwrist 4.75732
lhand -21.3891 25.6225
lfingers 7.12502
lthumb 4.99865 55.5436
rfemur -0.989141 -5.39767 28.7444
rtibia 30.7771
rfoot -19.5667 -15.1447
rtoes -6.15988
lfemur -25.2867 -4.29218 -12.0217
ltibia 15.9514
lfoot -4.14749 -1.19099
ltoes -12.6909
724
root 4.23378 17.5224 -4.18858 185.623 50.2083 187.769
lowerback 16.0563 2.37872 2.34665
upperback 3.2407 3.94536 1.98533
thorax -5.51868 2.02987 -0.0431574
lowerneck -14.3982 -6.07587 -12.4132
upperneck 37.7585 -4.42387 4.68831
head 16.4981 -2.19474 3.68821
rclavicle -5.94863e-014 -7.7526e-015
rhumerus -26.3632 30.012 -89.4778
rradius 71.1002
rwrist 13.012
rhand -11.2692 14.4982
rfingers 7.12502
rthumb 14.7612 -14.9562
lclavicle -5.94863e-014 -7.7526e-015
lhumerus -39.1281 -29.4461 102.445
lradius 65.6672
lwrist 4.45992
lhand -21.5887 25.523
lfingers 7.12502
lthumb 4.80595 55.4484
rfemur -1.02561 -5.43485 28.5774
rtibia 31.8098
rfoot -19.7983 -14.997
rtoes -7.54028
lfemur -25.203 -4.10498 -11.9655
ltibia 16.6361
lfoot -2.84214 -1.73607
ltoes -14.2258
725
root 4.29532 17.5075 -4.27082 185.418 50.8819 187.434
lowerback 16.3465 2.59112 1.77275
upperback 3.20206 4.13731 2.00875
thorax -5.75622 2.12778 0.247967
lowerneck -14.0857 -6.08108 -12.8875
upperneck 37.8528 -4.3607 4.89811
head 16.4957 -2.20334 3.88623
rclavicle 2.52457e-014 -3.71727e-014
rhumerus -26.47 29.9606 -89.3792
rradius 70.8471
rwrist 12.9201
rhand -11.5048 14.3817
rfingers 7.12502
rthumb 14.5342 -15.0892
lclavicle 2.52457e-014 -3.71727e-014
lhumerus -39.3255 -29.4049 102.739
lradius 65.4407
lwrist 4.71469
lhand -22.2116 25.4467
lfingers 7.12502
lthumb 4.20447 55.385
rfemur -1.3049 -5.33832 28.0925
rtibia 33.0083
rfoot -20.0273 -14.7661
rtoes -8.20631
lfemur -25.3003 -3.56066 -12.3241
ltibia 17.4722
lfoot -0.97484 -2.18609
ltoes -15.8219
726
root 4.3592 17.4979 -4.34659 185.463 51.5368 187.368
lowerback 16.6331 2.75897 1.1491
upperback 3.13371 4.26781 2.15787
thorax -6.04043 2.19866 0.710652
lowerneck -14.0001 -6.01264 -13.1185
upperneck 38.0842 -4.07877 4.73456
head 16.5729 -2.13733 3.91806
rclavicle 4.08999e-014 2.92213e-014
rhumerus -26.6873 30.1671 -89.3132
rradius 70.6682
rwrist 12.7549
rhand -11.6918 14.3829
rfingers 7.12502
rthumb 14.354 -15.1009
lclavicle 4.08999e-014 2.92213e-014
lhumerus -39.5355 -29.1901 103.028
lradius 65.2206
lwrist 5.09776
lhand -22.8873 25.3379
lfingers 7.12502
lthumb 3.55195 55.288
rfemur -1.70689 -5.17772 27.7901
rtibia 34.4295
rfoot -20.4441 -14.1052
rtoes -6.46664
lfemur -25.4667 -2.8174 -12.5088
ltibia 18.3518
lfoot 0.648307 -2.57197
ltoes -15.9733
727
root 4.42263 17.491 -4.42474 185.383 52.1485 187.221
lowerback 16.8392 2.92598 0.66138
upperback 3.20705 4.41145 2.19016
thorax -6.11357 2.279 0.978587
lowerneck -13.9201 -5.96041 -13.1424
upperneck 38.1367 -3.9218 4.57184
head 16.5601 -2.09711 3.88025
rclavicle 9.93923e-016 2.04748e-014
rhumerus -26.5888 30.1798 -89.2114
rradius 70.4007
rwrist 12.4605
rhand -11.8336 14.43
rfingers 7.12502
rthumb 14.2174 -15.0634
lclavicle 9.93923e-016 2.04748e-014
lhumerus -39.4605 -29.1423 103.104
lradius 64.8388
lwrist 4.82433
lhand -22.9071 25.0363
lfingers 7.12502
lthumb 3.53285 54.9868
rfemur -2.23173 -5.2769 27.3964
rtibia 36.1183
rfoot -20.4621 -13.5669
rtoes -5.7559
lfemur -25.5327 -2.29754 -12.7155
ltibia 19.1379
lfoot 1.91941 -2.75229
ltoes -13.9543
